# xmcd
#
# Track frame offsets: 
#        150
#        26176
#        42875
#        63681
#        98263
#        117433
#        141634
#        157776
#        176010
#        201764
#
# Disc length: 3156 seconds
#
# Revision: 0
# Processed by: cddbd v1.5.2PL0 Copyright (c) Steve Scherf et al.
# Submitted via: ExactAudioCopy v0.95b3
#
DISCID=890c520a
DTITLE=Johnny Jones - Can I Get An Amen?
DYEAR=2007
DGENRE=Blues
TTITLE0=Don't Throw Your Love On Me So Strong
TTITLE1=Chip Off The Old Block
TTITLE2=Sneaky Suspicion
TTITLE3=Can I Get An Amen
TTITLE4=Galloping Dominoes
TTITLE5=I Was Raised On The Blues
TTITLE6=I Done Did That Already
TTITLE7=Herb Stuffing
TTITLE8=I Can't Do That
TTITLE9=Ain't Nothing A Young Girl Can Do
EXTD=
EXTT0=
EXTT1=
EXTT2=
EXTT3=
EXTT4=
EXTT5=
EXTT6=
EXTT7=
EXTT8=
EXTT9=
PLAYORDER=
